# xmcd CD database file
#
# Track frame offsets:
#	150
#	11797
#	37872
#	48207
#	61250
#	71742
#	89587
#	101621
#	113899
#	128489
#	141678
#	154653
#	183280
#	195594
#	221122
#	229125
#	237298
#	251515
#	267496
#	291313
#	303074
#	319291
#
# Disc length: 4375 seconds
#
# Revision: 1
# Processed by: cddbd v1.5.2PL0 Copyright (c) Steve Scherf et al.
# Submitted via: CDex 1.50
#
DISCID=43111516
DTITLE=Suchy Jiri, Semafor - Zuzana se vraci
DYEAR=2000
DGENRE=Jazz
TTITLE0=Vzpominka na Zuzany minule
TTITLE1=Proc se lidi nemaj radi
TTITLE2=Dobre rady
TTITLE3=V opere
TTITLE4=Vcera nedele byla
TTITLE5=Marniva sestrenice
TTITLE6=I Can,t Stop Loving You
TTITLE7=Non, je ne regrette rien
TTITLE8=Z meho zivota
TTITLE9=Sadlo na chleba
TTITLE10=Stene
TTITLE11=Neni pisen jako pisen
TTITLE12=Male kote
TTITLE13=Madony
TTITLE14=He´s Got The Whole World In His Hands
TTITLE15=Michael. Row The Boat Ashore
TTITLE16=Go Like Elijah
TTITLE17=Na rezavym dvojplosniku
TTITLE18=Hallelujah!
TTITLE19=Hluboka vraska
TTITLE20=Konci divadlo
TTITLE21=When The Saints Go Marchin´In
EXTD=YEAR: 2000
EXTT0=
EXTT1=
EXTT2=
EXTT3=
EXTT4=
EXTT5=
EXTT6=
EXTT7=
EXTT8=
EXTT9=
EXTT10=
EXTT11=
EXTT12=
EXTT13=
EXTT14=
EXTT15=
EXTT16=
EXTT17=
EXTT18=
EXTT19=
EXTT20=
EXTT21=
PLAYORDER=
